<svg viewBox="0 0 20 20" fill="none" xmlns="http://www.w3.org/2000/svg" class="w-3"><path d="M1 13L8.61452 18.5563C9.42553 19.1479 10.5632 19.1479 11.3855 18.5563L19 13" stroke="white" stroke-linecap="round"></path><path d="M1 11L8.61452 16.5563C9.42553 17.1479 10.5632 17.1479 11.3855 16.5563L19 11" stroke="white" stroke-linecap="round"></path><path d="M11.1809 14.4984L11.1809 14.4984L11.1776 14.5008C10.4942 15.0041 9.51502 15.0046 8.83071 14.5094L0.763017 8.66938C0.762807 8.66923 0.762596 8.66908 0.762386 8.66892C0.428113 8.42444 0.428163 7.96739 0.762536 7.72297C0.762696 7.72286 0.762857 7.72274 0.763017 7.72262L8.82806 1.87339C8.82854 1.87305 8.82902 1.87271 8.8295 1.87236C9.52822 1.37467 10.4981 1.37738 11.181 1.87149L19.2487 7.71152C19.2489 7.71168 19.2491 7.71185 19.2493 7.71202C19.5835 7.95646 19.5835 8.41334 19.2493 8.65777C19.2491 8.65794 19.2489 8.65811 19.2487 8.65828L11.1809 14.4984Z" stroke="white"></path></svg>