<svg class="icon-category h-5" xmlns="http://www.w3.org/2000/svg" viewBox="0 0 212.6 212.6" data-v-c2fd1ba4=""><path class="cls-1" d="M77.4,112.51H42.61a22.79,22.79,0,0,0-22.76,22.76v34.79a22.79,22.79,0,0,0,22.76,22.77H77.4a22.79,22.79,0,0,0,22.77-22.77V135.27A22.79,22.79,0,0,0,77.4,112.51ZM88,170.06A10.56,10.56,0,0,1,77.4,180.61H42.61a10.56,10.56,0,0,1-10.54-10.55V135.27a10.55,10.55,0,0,1,10.54-10.54H77.4A10.56,10.56,0,0,1,88,135.27Z" data-v-c2fd1ba4=""></path><path class="cls-1" d="M77.4,19.77H42.61A22.79,22.79,0,0,0,19.85,42.54V77.32a22.79,22.79,0,0,0,22.76,22.77H77.4a22.79,22.79,0,0,0,22.77-22.77V42.54A22.79,22.79,0,0,0,77.4,19.77ZM88,77.32A10.56,10.56,0,0,1,77.4,87.87H42.61A10.56,10.56,0,0,1,32.07,77.32V42.54A10.56,10.56,0,0,1,42.61,32H77.4A10.56,10.56,0,0,1,88,42.54Z" data-v-c2fd1ba4=""></path><path class="cls-1" d="M170,112.51H135.2a22.79,22.79,0,0,0-22.77,22.76v34.79a22.79,22.79,0,0,0,22.77,22.77H170a22.79,22.79,0,0,0,22.77-22.77V135.27A22.79,22.79,0,0,0,170,112.51Zm10.55,57.55A10.56,10.56,0,0,1,170,180.61H135.2a10.56,10.56,0,0,1-10.55-10.55V135.27a10.56,10.56,0,0,1,10.55-10.54H170a10.56,10.56,0,0,1,10.55,10.54Z" data-v-c2fd1ba4=""></path><path class="cls-1" d="M170,19.77H135.2a22.79,22.79,0,0,0-22.77,22.77V77.32a22.79,22.79,0,0,0,22.77,22.77H170a22.79,22.79,0,0,0,22.77-22.77V42.54A22.79,22.79,0,0,0,170,19.77Zm10.55,57.55A10.56,10.56,0,0,1,170,87.87H135.2a10.56,10.56,0,0,1-10.55-10.55V42.54A10.56,10.56,0,0,1,135.2,32H170a10.56,10.56,0,0,1,10.55,10.55Z" data-v-c2fd1ba4=""></path><rect class="cls-2" x="19.83" y="112.51" width="80.34" height="80.34" rx="22.77" data-v-c2fd1ba4=""></rect><rect class="cls-2" x="19.83" y="19.75" width="80.34" height="80.34" rx="22.77" data-v-c2fd1ba4=""></rect><rect class="cls-2" x="112.43" y="112.51" width="80.34" height="80.34" rx="22.77" data-v-c2fd1ba4=""></rect><rect class="cls-2" x="112.43" y="19.75" width="80.34" height="80.34" rx="22.77" data-v-c2fd1ba4=""></rect></svg>