<svg viewBox="0 0 13 18" fill="none" xmlns="http://www.w3.org/2000/svg" class="w-3"><path d="M0.718983 5.9688L5.57061 1.11719H5.57452L5.72096 0.970741C6.01398 0.677722 6.49037 0.677722 6.78339 0.970741L11.7834 5.97074C11.9993 6.18669 12.0624 6.50623 11.9449 6.78816C11.8266 7.07225 11.5544 7.25391 11.2502 7.25391H1.25022C0.94906 7.25391 0.673532 7.07141 0.55551 6.78816C0.43925 6.50914 0.502634 6.18818 0.718162 5.96963C0.718436 5.96936 0.718709 5.96908 0.718983 5.9688ZM5.72096 17.0332L0.720962 12.0332C0.505016 11.8172 0.441944 11.4977 0.559416 11.2157C0.677785 10.9317 0.949955 10.75 1.25413 10.75H11.2502C11.5514 10.75 11.8269 10.9325 11.9449 11.2157C12.0612 11.4947 11.9978 11.8156 11.7824 12.0342C11.7821 12.0345 11.7818 12.0348 11.7815 12.0351L6.78339 17.0332C6.49037 17.3262 6.01398 17.3262 5.72096 17.0332Z" stroke="white"></path></svg>