<?xml version="1.0" encoding="UTF-8"?>
<svg id="Layer_2" data-name="Layer 2" xmlns="http://www.w3.org/2000/svg" viewBox="0 0 171.39 122.42">
  <defs>
    <style>
      .cls-1 {
        fill: #d82622;
        stroke-width: 0px;
      }
    </style>
  </defs>
  <g id="Layer_10" data-name="Layer 10">
    <g>
      <polygon class="cls-1" points="122.42 0 122.42 32.65 97.93 32.65 97.93 32.65 85.69 44.89 73.45 32.65 48.97 32.65 48.97 0 0 0 0 48.97 32.65 48.97 32.65 73.45 73.45 73.45 73.45 57.13 85.69 69.36 97.93 57.13 97.93 73.45 138.74 73.45 138.74 48.97 171.39 48.97 171.39 0 122.42 0"/>
      <polygon class="cls-1" points="97.93 81.61 97.93 81.62 85.69 93.86 73.45 81.61 32.65 81.61 32.65 122.42 73.45 122.42 73.45 106.1 85.69 118.33 97.93 106.1 97.93 122.42 138.74 122.42 138.74 81.61 97.93 81.61"/>
    </g>
  </g>
</svg>